# xmcd CD database file
#
# Track frame offsets:
#	150
#	15785
#	28980
#	44277
#	61775
#	78195
#	94830
#	111032
#	127130
#	143700
#	164880
#	182757
#	198385
#	214582
#	232192
#	252317
#	270787
#	291107
#
# Disc length: 4108 seconds
#
# Revision: 0
# Processed by: cddbd v1.5PL3 Copyright (c) Steve Scherf et al.
# Submitted via: CDex 1.51
#
DISCID=fc100a12
DTITLE=原真祐美 - アイドル・ミラクルバイブルシリーズ
DYEAR=2003
DGENRE=Pop
TTITLE0=決心
TTITLE1=ときめきING
TTITLE2=恋人なんて
TTITLE3=忘れないで
TTITLE4=Bye,Bye,September
TTITLE5=恋はFifty-Fifty
TTITLE6=夕暮れはLove Song
TTITLE7=涙色のメモリー
TTITLE8=わかってマイ・ラヴ
TTITLE9=NAGISA HOTEL
TTITLE10=夏のレッスン1(one)
TTITLE11=てんてん娘
TTITLE12=ペルシャの涙
TTITLE13=そっとさよなら
TTITLE14=泣き虫なマリオネット
TTITLE15=コントラスト
TTITLE16=真冬のロッジ
TTITLE17=SO LONG
EXTD=YEAR: 2003
EXTT0=
EXTT1=
EXTT2=
EXTT3=
EXTT4=
EXTT5=
EXTT6=
EXTT7=
EXTT8=
EXTT9=
EXTT10=
EXTT11=
EXTT12=
EXTT13=
EXTT14=
EXTT15=
EXTT16=
EXTT17=
PLAYORDER=
